<svg width="148" height="22" viewBox="0 0 148 22" fill="none" xmlns="http://www.w3.org/2000/svg">
<path d="M43.3144 1.06689H39.2826L30.5003 10.4221V1.0985H27.2686V21.3711H30.5003V11.5509L39.3143 21.3711H43.4907L34.0937 10.8871L43.3144 1.06689Z" fill="white"/>
<path d="M54.3025 7.1857C53.1499 6.5265 51.8527 6.19238 50.4017 6.19238C48.9237 6.19238 47.5994 6.52198 46.4287 7.1857C45.258 7.84941 44.3495 8.76597 43.6941 9.9444C43.0432 11.1228 42.7178 12.4593 42.7178 13.9538C42.7178 15.4483 43.0432 16.7892 43.6896 17.9631C44.3359 19.1416 45.2444 20.0626 46.4061 20.7218C47.5722 21.381 48.8921 21.7152 50.3701 21.7152C51.8301 21.7152 53.1363 21.3856 54.2934 20.7218C55.446 20.0626 56.3455 19.1416 56.9873 17.9631C57.6292 16.7847 57.9501 15.4483 57.9501 13.9538C57.9501 12.4593 57.6292 11.1228 56.9873 9.9444C56.35 8.76597 55.4506 7.84941 54.3025 7.1857ZM54.0991 16.5138C53.742 17.2543 53.2403 17.8277 52.5939 18.2431C51.9476 18.6585 51.2018 18.8662 50.3611 18.8662C49.5113 18.8662 48.7565 18.6585 48.1011 18.2431C47.4457 17.8277 46.9349 17.2498 46.5733 16.5138C46.2117 15.7733 46.0309 14.9245 46.0309 13.9583C46.0309 12.9921 46.2162 12.1432 46.5824 11.4028C46.9485 10.6623 47.4592 10.0889 48.1191 9.67349C48.7745 9.25811 49.5339 9.05041 50.3972 9.05041C51.2289 9.05041 51.9702 9.25811 52.6165 9.67349C53.2629 10.0889 53.7646 10.6668 54.1172 11.4028C54.4697 12.1432 54.646 12.9921 54.646 13.9583C54.637 14.92 54.4562 15.7733 54.0991 16.5138Z" fill="white"/>
<path d="M64.5551 2.83594H61.4228V5.35534C61.4228 5.75267 61.3279 6.05066 61.1335 6.24481C60.9392 6.44347 60.6408 6.5428 60.2341 6.5428H58.6973V9.20669H61.364V17.1848C61.364 18.0156 61.5313 18.747 61.8703 19.3791C62.2093 20.0112 62.6884 20.5034 63.3122 20.851C63.9359 21.1987 64.6727 21.3703 65.5224 21.3703H67.9135V18.589H66.1145C65.649 18.589 65.2738 18.4264 64.9845 18.1059C64.6953 17.7808 64.5506 17.3564 64.5506 16.8236V9.20669H67.9994V6.5428H64.5506V2.83594H64.5551Z" fill="white"/>
<path d="M73.6807 0.285645H70.4941V21.371H73.6807V0.285645Z" fill="white"/>
<path d="M80.498 0.312256H77.2798V3.58567H80.498V0.312256Z" fill="white"/>
<path d="M80.4664 6.54395H77.2798V21.3714H80.4664V6.54395Z" fill="white"/>
<path d="M96.6694 8.99013C96.2219 8.1097 95.5891 7.42792 94.771 6.93578C93.9529 6.44364 92.9992 6.19531 91.9054 6.19531C90.7437 6.19531 89.7267 6.47976 88.8544 7.04414C88.1583 7.49113 87.5978 8.09615 87.1549 8.84114L87.1368 6.54297H84.0903V21.3704H87.2814V13.0717C87.2814 12.2726 87.4351 11.5592 87.738 10.9361C88.0408 10.313 88.4702 9.82994 89.0307 9.48679C89.5866 9.14365 90.233 8.97207 90.9788 8.97207C91.6477 8.97207 92.2172 9.11204 92.6964 9.39197C93.1755 9.67191 93.5371 10.0737 93.7812 10.593C94.0298 11.1122 94.1518 11.7353 94.1518 12.4622V21.3704H97.3429V12.0152C97.3429 10.8774 97.1169 9.86606 96.6694 8.99013Z" fill="white"/>
<path d="M20 21H0V1H20L9.79292 10.8553L20 21Z" fill="url(#paint0_radial_7344_182550)"/>
<path d="M108.795 6.90909L106.173 14H105.065L102.443 6.90909H103.625L105.582 12.5597H105.656L107.614 6.90909H108.795ZM113.299 14.1293C112.603 14.1293 112.011 13.94 111.521 13.5614C111.032 13.1798 110.658 12.6274 110.4 11.9041C110.141 11.1778 110.012 10.3007 110.012 9.27273C110.012 8.25095 110.141 7.37843 110.4 6.65518C110.661 5.92886 111.037 5.37488 111.526 4.99325C112.019 4.60855 112.609 4.41619 113.299 4.41619C113.988 4.41619 114.578 4.60855 115.067 4.99325C115.559 5.37488 115.935 5.92886 116.193 6.65518C116.455 7.37843 116.586 8.25095 116.586 9.27273C116.586 10.3007 116.456 11.1778 116.198 11.9041C115.939 12.6274 115.566 13.1798 115.076 13.5614C114.587 13.94 113.994 14.1293 113.299 14.1293ZM113.299 13.1136C113.988 13.1136 114.524 12.7812 114.905 12.1165C115.287 11.4517 115.478 10.5038 115.478 9.27273C115.478 8.45407 115.39 7.75698 115.215 7.18146C115.042 6.60594 114.793 6.16738 114.467 5.86577C114.144 5.56416 113.754 5.41335 113.299 5.41335C112.616 5.41335 112.082 5.75035 111.697 6.42436C111.312 7.09529 111.12 8.04474 111.12 9.27273C111.12 10.0914 111.206 10.7869 111.378 11.3594C111.551 11.9318 111.798 12.3673 112.122 12.6658C112.448 12.9644 112.84 13.1136 113.299 13.1136ZM118.822 14.0739C118.595 14.0739 118.399 13.9923 118.236 13.8292C118.073 13.6661 117.991 13.4706 117.991 13.2429C117.991 13.0152 118.073 12.8197 118.236 12.6566C118.399 12.4935 118.595 12.4119 118.822 12.4119C119.05 12.4119 119.246 12.4935 119.409 12.6566C119.572 12.8197 119.653 13.0152 119.653 13.2429C119.653 13.3937 119.615 13.5322 119.538 13.6584C119.464 13.7846 119.364 13.8861 119.238 13.9631C119.115 14.0369 118.976 14.0739 118.822 14.0739ZM124.344 14.1293C123.648 14.1293 123.056 13.94 122.566 13.5614C122.077 13.1798 121.703 12.6274 121.445 11.9041C121.186 11.1778 121.057 10.3007 121.057 9.27273C121.057 8.25095 121.186 7.37843 121.445 6.65518C121.706 5.92886 122.082 5.37488 122.571 4.99325C123.063 4.60855 123.654 4.41619 124.344 4.41619C125.033 4.41619 125.623 4.60855 126.112 4.99325C126.604 5.37488 126.98 5.92886 127.238 6.65518C127.5 7.37843 127.631 8.25095 127.631 9.27273C127.631 10.3007 127.501 11.1778 127.243 11.9041C126.984 12.6274 126.61 13.1798 126.121 13.5614C125.632 13.94 125.039 14.1293 124.344 14.1293ZM124.344 13.1136C125.033 13.1136 125.569 12.7812 125.95 12.1165C126.332 11.4517 126.523 10.5038 126.523 9.27273C126.523 8.45407 126.435 7.75698 126.26 7.18146C126.087 6.60594 125.838 6.16738 125.512 5.86577C125.189 5.56416 124.799 5.41335 124.344 5.41335C123.661 5.41335 123.127 5.75035 122.742 6.42436C122.357 7.09529 122.165 8.04474 122.165 9.27273C122.165 10.0914 122.251 10.7869 122.423 11.3594C122.596 11.9318 122.843 12.3673 123.167 12.6658C123.493 12.9644 123.885 13.1136 124.344 13.1136ZM129.867 14.0739C129.64 14.0739 129.444 13.9923 129.281 13.8292C129.118 13.6661 129.036 13.4706 129.036 13.2429C129.036 13.0152 129.118 12.8197 129.281 12.6566C129.444 12.4935 129.64 12.4119 129.867 12.4119C130.095 12.4119 130.291 12.4935 130.454 12.6566C130.617 12.8197 130.698 13.0152 130.698 13.2429C130.698 13.3937 130.66 13.5322 130.583 13.6584C130.509 13.7846 130.409 13.8861 130.283 13.9631C130.16 14.0369 130.021 14.0739 129.867 14.0739ZM135.389 14.1293C134.693 14.1293 134.101 13.94 133.611 13.5614C133.122 13.1798 132.748 12.6274 132.49 11.9041C132.231 11.1778 132.102 10.3007 132.102 9.27273C132.102 8.25095 132.231 7.37843 132.49 6.65518C132.751 5.92886 133.127 5.37488 133.616 4.99325C134.108 4.60855 134.699 4.41619 135.389 4.41619C136.078 4.41619 136.667 4.60855 137.157 4.99325C137.649 5.37488 138.025 5.92886 138.283 6.65518C138.545 7.37843 138.676 8.25095 138.676 9.27273C138.676 10.3007 138.546 11.1778 138.288 11.9041C138.029 12.6274 137.655 13.1798 137.166 13.5614C136.677 13.94 136.084 14.1293 135.389 14.1293ZM135.389 13.1136C136.078 13.1136 136.614 12.7812 136.995 12.1165C137.377 11.4517 137.568 10.5038 137.568 9.27273C137.568 8.45407 137.48 7.75698 137.305 7.18146C137.132 6.60594 136.883 6.16738 136.557 5.86577C136.233 5.56416 135.844 5.41335 135.389 5.41335C134.705 5.41335 134.171 5.75035 133.787 6.42436C133.402 7.09529 133.21 8.04474 133.21 9.27273C133.21 10.0914 133.296 10.7869 133.468 11.3594C133.641 11.9318 133.888 12.3673 134.211 12.6658C134.538 12.9644 134.93 13.1136 135.389 13.1136ZM143.514 14.1293C142.818 14.1293 142.226 13.94 141.736 13.5614C141.247 13.1798 140.873 12.6274 140.615 11.9041C140.356 11.1778 140.227 10.3007 140.227 9.27273C140.227 8.25095 140.356 7.37843 140.615 6.65518C140.876 5.92886 141.252 5.37488 141.741 4.99325C142.233 4.60855 142.824 4.41619 143.514 4.41619C144.203 4.41619 144.792 4.60855 145.282 4.99325C145.774 5.37488 146.15 5.92886 146.408 6.65518C146.67 7.37843 146.801 8.25095 146.801 9.27273C146.801 10.3007 146.671 11.1778 146.413 11.9041C146.154 12.6274 145.78 13.1798 145.291 13.5614C144.802 13.94 144.209 14.1293 143.514 14.1293ZM143.514 13.1136C144.203 13.1136 144.739 12.7812 145.12 12.1165C145.502 11.4517 145.693 10.5038 145.693 9.27273C145.693 8.45407 145.605 7.75698 145.43 7.18146C145.257 6.60594 145.008 6.16738 144.682 5.86577C144.358 5.56416 143.969 5.41335 143.514 5.41335C142.83 5.41335 142.296 5.75035 141.912 6.42436C141.527 7.09529 141.335 8.04474 141.335 9.27273C141.335 10.0914 141.421 10.7869 141.593 11.3594C141.766 11.9318 142.013 12.3673 142.336 12.6658C142.663 12.9644 143.055 13.1136 143.514 13.1136Z" fill="white" fill-opacity="0.7"/>
<defs>
<radialGradient id="paint0_radial_7344_182550" cx="0" cy="0" r="1" gradientUnits="userSpaceOnUse" gradientTransform="translate(19.3354 1.82218) scale(22.9097)">
<stop offset="0.00343514" stop-color="#EF4857"/>
<stop offset="0.4689" stop-color="#D211EC"/>
<stop offset="1" stop-color="#7F52FF"/>
</radialGradient>
</defs>
</svg>
